<svg width="123" height="24" viewBox="0 0 123 24" fill="none" xmlns="http://www.w3.org/2000/svg">
<path d="M5.12989 6.57002V10.83H11.9999V14.79H5.12989V19.41H12.8999V23.52H-0.000107341V2.46002H12.8999V6.57002H5.12989ZM24.6304 11.04H21.8704V23.52H16.7404V11.04H14.8804V6.78002H16.7404V6.30002C16.7404 4.24002 17.3304 2.68002 18.5104 1.62002C19.6904 0.540019 21.4204 1.83582e-05 23.7004 1.83582e-05C24.0804 1.83582e-05 24.3604 0.0100182 24.5404 0.030018V4.38002C23.5604 4.32002 22.8704 4.46002 22.4704 4.80002C22.0704 5.14002 21.8704 5.75002 21.8704 6.63002V6.78002H24.6304V11.04ZM26.0209 15.12C26.0209 13.4 26.3409 11.89 26.9809 10.59C27.6409 9.29002 28.5309 8.29002 29.6509 7.59002C30.7709 6.89002 32.0209 6.54002 33.4009 6.54002C34.5809 6.54002 35.6109 6.78002 36.4909 7.26002C37.3909 7.74002 38.0809 8.37002 38.5609 9.15002V6.78002H43.6909V23.52H38.5609V21.15C38.0609 21.93 37.3609 22.56 36.4609 23.04C35.5809 23.52 34.5509 23.76 33.3709 23.76C32.0109 23.76 30.7709 23.41 29.6509 22.71C28.5309 21.99 27.6409 20.98 26.9809 19.68C26.3409 18.36 26.0209 16.84 26.0209 15.12ZM38.5609 15.15C38.5609 13.87 38.2009 12.86 37.4809 12.12C36.7809 11.38 35.9209 11.01 34.9009 11.01C33.8809 11.01 33.0109 11.38 32.2909 12.12C31.5909 12.84 31.2409 13.84 31.2409 15.12C31.2409 16.4 31.5909 17.42 32.2909 18.18C33.0109 18.92 33.8809 19.29 34.9009 19.29C35.9209 19.29 36.7809 18.92 37.4809 18.18C38.2009 17.44 38.5609 16.43 38.5609 15.15ZM57.6022 6.60002C59.5622 6.60002 61.1222 7.24002 62.2822 8.52002C63.4622 9.78002 64.0522 11.52 64.0522 13.74V23.52H58.9522V14.43C58.9522 13.31 58.6622 12.44 58.0822 11.82C57.5022 11.2 56.7222 10.89 55.7422 10.89C54.7622 10.89 53.9822 11.2 53.4022 11.82C52.8222 12.44 52.5322 13.31 52.5322 14.43V23.52H47.4022V6.78002H52.5322V9.00002C53.0522 8.26002 53.7522 7.68002 54.6322 7.26002C55.5122 6.82002 56.5022 6.60002 57.6022 6.60002ZM66.5971 15.12C66.5971 13.4 66.9171 11.89 67.5571 10.59C68.2171 9.29002 69.1071 8.29002 70.2271 7.59002C71.3471 6.89002 72.5971 6.54002 73.9771 6.54002C75.0771 6.54002 76.0771 6.77002 76.9771 7.23002C77.8971 7.69002 78.6171 8.31002 79.1371 9.09002V1.32002H84.2671V23.52H79.1371V21.12C78.6571 21.92 77.9671 22.56 77.0671 23.04C76.1871 23.52 75.1571 23.76 73.9771 23.76C72.5971 23.76 71.3471 23.41 70.2271 22.71C69.1071 21.99 68.2171 20.98 67.5571 19.68C66.9171 18.36 66.5971 16.84 66.5971 15.12ZM79.1371 15.15C79.1371 13.87 78.7771 12.86 78.0571 12.12C77.3571 11.38 76.4971 11.01 75.4771 11.01C74.4571 11.01 73.5871 11.38 72.8671 12.12C72.1671 12.84 71.8171 13.84 71.8171 15.12C71.8171 16.4 72.1671 17.42 72.8671 18.18C73.5871 18.92 74.4571 19.29 75.4771 19.29C76.4971 19.29 77.3571 18.92 78.0571 18.18C78.7771 17.44 79.1371 16.43 79.1371 15.15ZM103.758 14.88C103.758 15.36 103.728 15.86 103.668 16.38H92.0584C92.1384 17.42 92.4684 18.22 93.0484 18.78C93.6484 19.32 94.3784 19.59 95.2384 19.59C96.5184 19.59 97.4084 19.05 97.9084 17.97H103.368C103.088 19.07 102.578 20.06 101.838 20.94C101.118 21.82 100.208 22.51 99.1084 23.01C98.0084 23.51 96.7784 23.76 95.4184 23.76C93.7784 23.76 92.3184 23.41 91.0384 22.71C89.7584 22.01 88.7584 21.01 88.0384 19.71C87.3184 18.41 86.9584 16.89 86.9584 15.15C86.9584 13.41 87.3084 11.89 88.0084 10.59C88.7284 9.29002 89.7284 8.29002 91.0084 7.59002C92.2884 6.89002 93.7584 6.54002 95.4184 6.54002C97.0384 6.54002 98.4784 6.88002 99.7384 7.56002C100.998 8.24002 101.978 9.21002 102.678 10.47C103.398 11.73 103.758 13.2 103.758 14.88ZM98.5084 13.53C98.5084 12.65 98.2084 11.95 97.6084 11.43C97.0084 10.91 96.2584 10.65 95.3584 10.65C94.4984 10.65 93.7684 10.9 93.1684 11.4C92.5884 11.9 92.2284 12.61 92.0884 13.53H98.5084ZM116.365 23.52L113.155 18.87L110.455 23.52H104.905L110.425 14.97L104.755 6.78002H110.515L113.725 11.4L116.425 6.78002H121.975L116.365 15.21L122.125 23.52H116.365Z" fill="#1A1A1A"/>
</svg>
